<svg xmlns="http://www.w3.org/2000/svg" width="100" height="auto" viewBox="0 0 2888.484 2858.424"><g transform="translate(-1860.001 -1733)"><path d="M1425.429,2820.959c787.111,0,1425.2-631.441,1425.2-1410.361S2212.54.231,1425.429.231.234,631.673.234,1410.6,638.316,2820.959,1425.429,2820.959Z" transform="translate(1879.309 1751.612)" fill="#fff"/><path d="M40,86.344A36.351,36.351,0,1,0,3.271,49.99,36.541,36.541,0,0,0,40,86.344Z" transform="translate(2124.239 2833.557)" fill="#1d1d1b"/><path d="M67.927,86.344A36.351,36.351,0,1,0,31.2,49.99,36.537,36.537,0,0,0,67.927,86.344Z" transform="translate(4376.71 2833.557)" fill="#1d1d1b"/><path d="M1444.688,0a1455.075,1455.075,0,0,0-802.5,240.647C404.625,397.637,219.442,620.819,110.062,881.962a1415.408,1415.408,0,0,0-82.371,825.8c55.675,277.273,193.19,531.975,395.152,731.895s459.3,336.089,739.469,391.273a1458.32,1458.32,0,0,0,834.5-81.256c263.93-108.162,489.514-291.341,648.229-526.389a1418.64,1418.64,0,0,0,243.434-794.068c0-378.975-152.1-742.434-422.849-1010.45S1827.648.119,1444.688,0Zm0,2819.831A1416.216,1416.216,0,0,1,663.725,2585.4c-231.165-152.853-411.337-370.108-517.731-624.3A1377.608,1377.608,0,0,1,66,1157.381C120.241,887.54,254.121,639.672,450.711,445.129S897.77,118.1,1170.453,64.423a1419.426,1419.426,0,0,1,812.171,79.16c256.858,105.287,476.4,283.584,630.861,512.344A1381.368,1381.368,0,0,1,2438.666,2412.4a1413.282,1413.282,0,0,1-993.978,407.433Z" transform="translate(1860.006 1733)" fill="#1d1d1b"/><path d="M926.92,6.347A927.4,927.4,0,0,0,415.514,159.865,913.066,913.066,0,0,0,76.483,568.676,904.026,904.026,0,0,0,276.024,1561.4a925.853,925.853,0,0,0,1416.269-138.04A904.561,904.561,0,0,0,1577.811,273.151,925.438,925.438,0,0,0,926.92,6.347Zm0,1800.313a905.477,905.477,0,0,1-499.312-149.888A891.46,891.46,0,0,1,96.593,1257.628,882.643,882.643,0,0,1,291.414,288.382,903.949,903.949,0,0,1,1674.19,423.156a882.81,882.81,0,0,1,151.464,494.119c0,235.881-94.681,462.094-263.227,628.885S1165.283,1806.66,926.92,1806.66Z" transform="translate(2377.745 2244.939)" fill="#1d1d1b"/><path d="M1183.074,289.994H971.314V237.04H891.046V8.637H568.193A193.764,193.764,0,0,0,418.1,68.318,213.954,213.954,0,0,0,368.225,214.6v74.944H115.653L10,1267.78l638.457,269.237,638.463-269.237ZM650.266,1514.13H648L35.385,1255.662,136.051,316.018v-5.389H391.8V214.6A193.919,193.919,0,0,1,437.142,79.985a173.28,173.28,0,0,1,133.321-52.5H871.554V255.437h80.26v55.192h213.572v2.695l99.76,939.644Z" transform="translate(2666.641 2409.582)" fill="#1d1d1b"/><path d="M100.79,82.994H20.53V227.485h80.26v36.794H308.017L281.267,12.54H100.79V82.994Z" transform="translate(3516.305 2744.472)" fill="#00b1eb" fill-rule="evenodd"/><path d="M38.359,12.54,11.6,264.279H260.546V12.54Z" transform="translate(2796.078 2744.472)" fill="#00b1eb" fill-rule="evenodd"/><path d="M1099.051,16.041H888.19V105.79h-78.9V227.841H558.077V16.041H464.214V39.828c0,120.255-112.906,183.531-226.719,183.531H226.153V92.324h7.259c52.595,0,90.687-27.371,90.687-63.716V16.041H74.7L10.768,614.648,587.1,857.412l576.339-242.764Z" transform="translate(2728.902 3026.812)" fill="#005ca9" fill-rule="evenodd"/><path d="M110.185,12.54H16.321V264.279h93.864Z" transform="translate(3176.799 2744.472)" fill="#00b1eb"/><path d="M80.111,10.078a64.479,64.479,0,0,0-25.885,5.479A63.83,63.83,0,0,0,32.807,30.933a62.881,62.881,0,0,0-16.176,48.7v94.68h93.864V10.078ZM89.64,153.671H37.486V79.633A44.623,44.623,0,0,1,48.305,46.211a45.271,45.271,0,0,1,14.306-10.95,45.763,45.763,0,0,1,17.5-4.54H89.64Z" transform="translate(3176.482 2545.888)" fill-rule="evenodd"/><path d="M71.227,40.292a26.063,26.063,0,0,0-14.772,3.6A25.689,25.689,0,0,0,46.289,55.1,66.29,66.29,0,0,0,39.03,86.958H19.081A73.025,73.025,0,0,1,32.228,39.393,45.205,45.205,0,0,1,49.907,24.72a45.676,45.676,0,0,1,22.684-4.173A52,52,0,0,1,109.32,34.453a51.711,51.711,0,0,1,11.84,18.373,51.106,51.106,0,0,1,3.119,21.565,58.361,58.361,0,0,1-12.24,39.489,160.485,160.485,0,0,1-27.665,25.134q-15.862,10.766-29.927,21.533a44.806,44.806,0,0,0-16.772,27.828h84.792V208.12H14.549a84.62,84.62,0,0,1,15.866-48.912,164.605,164.605,0,0,1,30.833-27.828A195.606,195.606,0,0,0,93,104.906a44.6,44.6,0,0,0,10.427-30.964A32.1,32.1,0,0,0,93.9,49.715a31.477,31.477,0,0,0-22.676-9.423Z" transform="translate(3033.92 3380.388)" fill="#fff"/><path d="M69.8,211.086a42.932,42.932,0,0,1-28.767-7.774,42.18,42.18,0,0,1-16.576-24.53,247.835,247.835,0,0,1,0-126.543,49.921,49.921,0,0,1,18.487-23.1,50.789,50.789,0,0,1,56.89,0,49.97,49.97,0,0,1,18.487,23.1,254.068,254.068,0,0,1,0,126.543,41.784,41.784,0,0,1-17.678,25.828A42.511,42.511,0,0,1,69.8,211.086Zm0-170.964A28.411,28.411,0,0,0,58.732,41.8,28.068,28.068,0,0,0,49.2,47.627a27.714,27.714,0,0,0-8.876,19.867,273.156,273.156,0,0,0,0,96.477,29.535,29.535,0,0,0,9.889,18.552,30.143,30.143,0,0,0,39.636,0,29.525,29.525,0,0,0,9.88-18.552,278.638,278.638,0,0,0,0-96.477A27.458,27.458,0,0,0,97.3,56.56,28.007,28.007,0,0,0,81.016,41.666,28.273,28.273,0,0,0,69.8,40.122Z" transform="translate(3170.925 3380.564)" fill="#fff"/><path d="M83.282,20.426V207.991H60.606V73.372H17.981V55.424A66.4,66.4,0,0,0,48.365,48.7a35.185,35.185,0,0,0,11.84-11.873,34.891,34.891,0,0,0,4.94-15.947Z" transform="translate(3310.714 3380.508)" fill="#fff"/><path d="M110.132,20.426V144.275h18.585v19.744H110.132v44.87H91.988v-44.87H19.436V141.131l74.822-120.7ZM35.31,144.275H91.988V51.831Z" transform="translate(3428.063 3380.508)" fill="#fff"/><path d="M16.393,10.189,32.267,8.843l7.259,109.939-15.874.9.449,4.039,50.333-3.59-.449-4.039-15.417,1.347L51.309,7.946l15.417-.9V2.561L16.393,6.15Z" transform="translate(3182.618 1939.546)" fill="#1d1d1b"/><path d="M132.831,31.791l17.23,5.385-25.4,75.836L94.738,14.739,58.915,3.072,57.56,7.111,72.07,11.6,37.154,115.7l-14.51-4.488-1.364,3.59,36.729,12.115,1.364-3.59L41.686,117.5,75.7,16.983l39.448,130.581,3.177.448L155.049,38.971l14.51,4.487,1.364-3.59L134.194,27.753Z" transform="translate(3576.774 1980.779)" fill="#1d1d1b"/><path d="M12.14,32.666l13.6-7.628,55.322,95.13-13.6,7.629,1.813,3.59,43.531-24.681-1.813-3.59-13.6,7.628L42.067,15.614l13.6-7.628L53.4,4.4,9.874,29.525Z" transform="translate(2656.789 2087.581)" fill="#1d1d1b"/><path d="M168.467,80.547l8.615,15.7-70.739,38.591,45.344-91.994-18.136-33.2-3.626,2.243L137.177,24.9,40.145,78.3,32.885,64.837l-3.626,1.8,18.593,33.659,3.625-1.8-9.072-16.16L136.27,31.184v.448L75.51,153.687l2.27,2.695,101.572-55.649,7.251,13.016,4.083-1.8-18.593-33.2Z" transform="translate(4220.402 2510.872)" fill="#1d1d1b"/><path d="M155.9,56.121l11.342,9.871-34.467,38.143-38.542-34.1L128.7,31.89l10.885,9.872,3.176-3.141L105.57,5.864,102.851,9l11.791,10.321L40.727,100.994,28.944,90.673l-2.727,3.141L63.4,126.572l2.719-2.692L54.788,113.558,91.517,73.173l38.542,34.1L93.33,148.111,82,137.79l-2.719,3.141,37.178,32.757,2.719-3.14-11.791-10.321L181.3,78.558l11.791,10.321,2.719-2.692L158.63,52.98Z" transform="translate(3974.944 2205.927)" fill="#1d1d1b"/><path d="M48.3,51.58l8.616-12.565L99.541,67.734l-29.021,42.63L27.9,81.645,36.058,69.53l-3.174-2.693L4.77,107.672,8.4,109.915l8.616-12.564,92.05,61.475-9.07,12.567,3.628,2.246,27.66-40.387-3.174-2.245-8.616,12.118L74.148,112.608l29.021-42.63,45.345,30.514-8.162,12.564,3.175,2.243L171.64,74.465l-3.627-2.243L159.4,85.235,67.347,23.759l9.069-13.014L72.787,8.5,45.127,49.336Z" transform="translate(2245.17 2418.697)" fill="#1d1d1b"/><path d="M132.991,4.7h-2.719L35.951,83.675l-11.783-7.18v3.59l31.74,18.846v-3.59L40.94,86.367,70.867,60.79l26.3,15.7-9.521,37.693-14.967-8.974v3.59l45.352,27.373v-3.59l-13.155-7.628ZM74.95,55.854l34.459-28.719L98.532,72.008Z" transform="translate(3809.68 2111.965)" fill="#1d1d1b"/><path d="M6.236,7.738V10.43l63.03,105L60.2,125.754l3.174,2.692L87.4,100.625l-3.174-2.692L72.893,110.946,52.488,77.74,72.893,54.406l35.823,15.705L97.379,83.124l3.174,2.692L135.47,45.431l-3.628-2.692-9.976,11.667ZM47.5,73.252,24.374,35.11l40.811,17.5Z" transform="translate(2363.421 2357.079)" fill="#1d1d1b"/><path d="M72,32.721,85.6,21.054,137.292,78.94c13.15,14.808,19.5,26.476-4.081,47.117s-30.381,13.014-45.345-2.692L35.72,64.581l12.243-10.77L45.242,50.67,7.152,83.877l2.72,3.141,11.336-9.872,53.961,60.13c14.964,16.6,26.754,22.437,57.135-4.039s24.486-39.488,9.522-56.091l-52.6-59.233L99.656,8.938,96.935,5.8,69.275,30.029Z" transform="translate(2437.319 2200.613)" fill="#1d1d1b"/><path d="M44.305,45.411l8.616-16.16,71.192,37.244L21.633,79.96,3.948,113.17l3.628,2.237L14.831,101.5l98.4,50.709-7.255,13.457,3.628,2.246L127.741,133.8l-4.081-1.788L115.5,148.168,20.273,99.255l.453-.449,136.489-17.5.907-3.144L55.188,25.217l6.8-13.465L58.362,9.958,40.678,43.615Z" transform="translate(2178.883 2536.141)" fill="#1d1d1b"/><path d="M76.033,29.488,91,19.617l45.8,65.515L39.756,49.682,8.469,71.22l2.267,3.59,12.244-8.975,63.483,90.2-12.7,8.526,2.721,3.59,31.741-21.988-2.721-3.141L90.543,153.339,29.327,66.284h.454L159.013,113.4l2.27-2.244L95.077,16.924,107.321,7.95l-2.268-3.141L73.765,26.348Z" transform="translate(2543.475 2120.82)" fill="#1d1d1b"/><path d="M7.7,59.056,13.6,44.7l102.48,41.726-5.895,14.363,3.627,1.8,19.046-46.217-3.628-1.347-5.895,14.355L20.852,27.2l5.895-14.363-3.628-1.347L3.621,57.267Z" transform="translate(2152.457 2659.801)" fill="#1d1d1b"/><path d="M79.092,22.535l15.874-7.18L105.394,106,42.812,39.586l15.425-7.18-1.821-3.59L10.623,49.907l1.813,4.039,12.24-5.834,85.249,87.951,3.176-1.346L99.947,12.662l11.342-5.385-1.813-3.59L77.728,18.944Z" transform="translate(2717.258 2030.416)" fill="#1d1d1b"/><path d="M106.447,120.345l-24.031,8.077L64.279,78.164l8.615-2.692c18.136-6.283,20.855,0,28.114,17.949h4.532l-18.593-53.4H82.415c5.9,16.6,7.259,23.783-11.334,30.065l-6.8,3.141L47.05,25.213l7.708-2.692C90.581,9.957,97.383,10.854,111.893,36.88h4.075L102.821,3.226,12.134,34.188v4.039l14.959-4.936L64.279,134.7,49.312,139.64v4.039l94.77-32.757-12.24-38.591h-4.083C134.112,98.805,130.478,112.268,106.447,120.345Z" transform="translate(2839.085 1993.185)" fill="#1d1d1b"/><path d="M68.371,122.4l-14.51-20.642L99.2,71.241l4.989,7.179c11.334,15.706,7.251,19.744-9.978,31.86l2.719,4.039,45.352-32.308-2.727-4.039c-14.959,10.321-21.312,13.462-32.646-2.244l-4.989-7.18L144.1,39.381l4.532,6.282c21.77,30.962,23.125,37.693,0,58.335l2.27,3.59,29.47-21.539L125.506,8.419l-3.176,2.243L131.4,23.227,40.714,86.049,31.642,73.484l-3.176,2.244,57.592,81.22,34.01-21.987-2.727-3.59C98.3,142.593,83.33,143.042,68.371,122.4Z" transform="translate(4156.351 2412.04)" fill="#1d1d1b"/><path d="M119.748,80C112.5,54.875,104.332,53.529,79.394,56.222c14.968-5.385,25.844-13.911,21.312-32.309S79.851-.319,58.988,4.617L13.644,15.835v4.039l15.417-3.59L53.092,121.736l-15.417,3.59v4.039L86.2,118.147v-4.039l-14.51,3.141L58.988,63.4l10.428-2.243c20.863-4.936,25.852,0,32.2,21.988s9.978,29.616,29.927,25.129l11.791-2.692v-4.039h-4.083C127.914,105.133,123.831,97.055,119.748,80ZM57.632,58.914,46.29,10.9h8.615c16.78-4.038,24.04,3.59,27.665,18.847s0,25.129-13.6,28.719Z" transform="translate(2960.912 1970.246)" fill="#1d1d1b"/><path d="M27.222,28.212a20.043,20.043,0,0,1,5.814-14.122,20.492,20.492,0,0,1,14.135-6.07c15.417,0,26.3,5.384,32.646,23.782h4.54L79.817,6.223A78.747,78.747,0,0,0,48.535,3.083,34.712,34.712,0,0,0,35,6.343a34.23,34.23,0,0,0-18.03,20.279,33.759,33.759,0,0,0-1.535,13.7C20.87,80.713,83.451,60.969,87.526,92.38c0,15.706-10.427,24.681-24.031,26.475a36.98,36.98,0,0,1-25.64-7.9A36.291,36.291,0,0,1,24.5,87.893H19.963L25.4,120.65a83.37,83.37,0,0,0,36.28,2.692,38.722,38.722,0,0,0,26.783-12.9,37.887,37.887,0,0,0,9.5-27.936C92.515,37.186,30.848,57.379,27.222,28.212Z" transform="translate(3092.894 1949.353)" fill="#1d1d1b"/><path d="M90.243,19.237a20.557,20.557,0,0,1,29.935-2.244,28.97,28.97,0,0,1,6.8,39.488l3.625,2.692,14.51-21.538a77.365,77.365,0,0,0-20.406-23.783,34.672,34.672,0,0,0-49.884,4.487C50.346,51.1,109.294,79.816,90.7,105.394a24.426,24.426,0,0,1-7.774,6.224,24.672,24.672,0,0,1-28.049-3.981,35.651,35.651,0,0,1-6.8-48.911l-3.625-2.692L25.4,83.405a81.113,81.113,0,0,0,24.489,26.924,39.275,39.275,0,0,0,54.865-4.487C131.055,69.944,72.565,42.571,90.243,19.237Z" transform="translate(3909.107 2162.49)" fill="#1d1d1b"/><path d="M46.831,6.924l15.417,3.59L36.4,117.312l-14.968-3.59-.906,4.038,48.978,11.219.906-4.039L55,121.35l25.387-106.8,15.425,3.59.906-3.59L47.738,2.885Z" transform="translate(3516.305 1965.694)" fill="#1d1d1b"/><path d="M17.215,40.238H22.2c0-15.257,7.251-32.757,24.481-32.308H62.559V116.523H44.423v4.039h55.771V117.42H81.6V8.827h14.51c16.78,0,23.125,17.5,23.582,32.757h4.989V3.891L17.215,2.544Z" transform="translate(3248.912 1938.224)" fill="#1d1d1b"/><path d="M34.236,39.2h4.532c7.259-13.462,20.863-26.475,36.28-18.846l13.147,6.282L40.131,126.257l-16.78-8.077v3.59L73.235,146v-3.59L56.9,134.334l48.071-97.824,12.7,6.282c15.417,7.18,13.6,25.578,7.251,39.937h4.54l16.772-34.1L51.016,3.753Z" transform="translate(3743.836 2035.737)" fill="#1d1d1b"/><path d="M94.492,25.417v4.491c14.51-5.389,33.1-6.288,39.906,9.423l5.438,13.008L40.983,94.973l-7.251-16.6H30.1l21.77,50.7h3.625l-7.251-16.6L149.357,69.839,154.8,82.855c6.8,15.711-6.8,28.269-20.863,35.006v4.483l34.916-14.8L127.6,11.062Z" transform="translate(4288.03 2625.24)" fill="#1d1d1b"/><path d="M88.613,10.655l-.457,4.039,16.78,1.795L74.552,61.81,54.146,10.655,71.376,12.9l.457-4.039L19.23,2.577l-.449,4.039,13.6,1.795L56.865,65.849l-6.345,55.194L35.1,118.8l-.906,4.488,50.333,5.384v-4.039l-14.968-1.795,6.353-55.194,34.459-50.258,12.7,1.347.449-4.039Z" transform="translate(3375.218 1940.883)" fill="#1d1d1b"/><path d="M41.53,95.511l82.979-71.8L114.082,9.8l3.176-2.693,34.01,38.142-3.176,2.692L137.664,36.279,54.677,108.525l10.436,11.667-3.634,3.14-34-38.142,3.168-3.141Zm121.521-35,20.863,23.334-3.626,2.692-7.708-8.526H117.707L99.122,160.578l5.438,6.283L100.935,170,71.914,137.244,75.54,134.1l6.8,7.628,16.78-68.656h69.824l-9.064-10.32Z" transform="translate(4076.628 2306.557)" fill="#1d1d1b"/><path d="M19.2,39.8,34.616,38.45,45.95,146.6l-15.417,1.8.457,4.034,49.427-4.932-.457-4.042L64.543,144.8,53.658,36.654l15.417-1.347-.449-4.483L18.742,35.756Z" transform="translate(3372.079 4219.11)" fill="#1d1d1b"/><path d="M30.953,65.959,40.932,54.29l83.428,71.351L113.933,137.31l3.176,2.237L149.755,102.3l-3.176-2.686-9.97,11.66L53.172,40.384,63.15,28.715l-2.727-2.695L27.777,63.713Z" transform="translate(4100.812 3831.717)" fill="#1d1d1b"/><path d="M34.828,69.459l4.083-14.8L145.472,81.577l-4.083,14.8,4.083,1.347,12.24-48.014-4.075-.9L150,63.629,43.443,36.707l4.083-15.262-4.083-.9L30.753,68.561Z" transform="translate(4340.882 3390.255)" fill="#1d1d1b"/><path d="M97.988,44.946l16.772-5.381,23.133,76.283h-.457L57.176,52.581,20.9,63.344l1.364,4.042L36.77,62.9l31.291,104.1-14.51,4.483,1.355,4.042,36.729-11.219-1.356-3.593-17.229,4.94L42.666,65.14h.449l107.019,83.918,2.719-1.347L119.75,38.218l14.511-4.042L132.9,30.142,96.625,40.913Z" transform="translate(3545.863 4164.152)" fill="#1d1d1b"/><path d="M134.961,74.948,146.3,84.371,113.649,123.86,74.2,91.1l32.649-39.04,11.336,9.423,2.721-3.136L82.814,27.383l-2.267,3.144L92.336,40.4l-70.285,83.91-11.79-9.872-2.721,3.144,38.089,30.956,2.721-3.136-11.79-9.423L71.477,94.244l39.9,32.311L76.466,168.282l-11.79-9.423L62.409,162l37.636,30.964,2.721-3.144L90.976,180.4l69.831-83.91,12.244,9.872,2.268-3.144L137.681,71.8Z" transform="translate(2468.675 3941.642)" fill="#1d1d1b"/><path d="M129.362,88.79l3.174,14.363-49.88,10.771L71.773,64.563l49.88-11.22,3.174,14.8,4.081-.9L118.026,19.684l-4.081.9,3.627,14.813L10.1,58.724,6.93,43.92l-4.081.9,10.43,47.565,4.081-.9L14.185,77.121l53.508-11.66,10.882,49.353L25.521,126.483l-3.174-14.355-4.081.9L28.7,160.591l4.081-.9L29.6,144.88l107.015-23.329,3.627,14.8,4.081-.9L133.443,87.892Z" transform="translate(2090.196 3320.66)" fill="#1d1d1b"/><path d="M81.54,30.867H78.364l-48.52,111.29H15.782v4.034l36.729,3.144V145.3H35.282l14.968-35.9,30.833,2.695,8.166,37.693H72.011v4.042l53.06,4.483v-4.034H109.646Zm-29.029,70.9L70.2,61.383l9.521,44.878Z" transform="translate(3133.348 4222.65)" fill="#1d1d1b"/><path d="M119.981,28.719h-2.719L21.129,103.655,8.885,94.232v3.585L39.72,118.01v-3.585L25.663,106.79,56.044,82.563l25.847,16.6L71.008,135.958,56.5,126.535v3.593L101.845,159.3l-2.27-7.626-12.7-8.076Zm-59.4,48.455L95.494,50.252,83.251,92.435Z" transform="translate(2577.066 4049.353)" fill="#1d1d1b"/><path d="M27.12,29.125H24.4L47.975,148.042l-12.24,6.729v3.593l32.2-17.956v-3.585l-14.967,8.525-7.708-37.693L72.014,92.842l28.114,26.481-14.968,8.525v3.585l45.344-26.024v-3.593l-13.147,7.635Zm16.323,74.487-8.615-44.87,32.2,30.066Z" transform="translate(3828.489 4082.158)" fill="#1d1d1b"/><path d="M142.817,92.573l9.523,15.253L84.322,149.111h-.454L125.133,55.77,105.181,23.916l-3.627,2.237,8.162,12.567L15.851,96.157,8.142,83.149,4.515,85.387,24.467,117.7l3.627-2.246L18.572,100.2l90.237-55.192.453.441L54.395,169.305l2.721,2.237,97.945-59.674,8.162,13.008,3.175-2.237L146.445,90.327Z" transform="translate(2224.57 3661.96)" fill="#1d1d1b"/><path d="M158.353,112.574l-12.7,21.533-45.344-28.269,4.532-7.627c9.521-16.6,14.967-14.355,32.646-4.483l2.27-4.042L90.79,60.967l-2.728,4.042c15.425,8.974,20.863,13.457,11.342,30.066l-4.54,7.627L49.521,77.118,53.6,70.39c19.042-32.311,24.489-35.9,52.6-26.024V40.773L74.459,23.723,29.115,104.947h3.634l7.708-13.465,96.126,59.234-7.708,13.457h3.633l49.876-85.257L147.925,60.967h-2.27C164.248,77.568,171.05,91.033,158.353,112.574Z" transform="translate(4208.752 3646.448)" fill="#1d1d1b"/><path d="M83.341,37.1a20.529,20.529,0,0,1,29.475,2.246,28.506,28.506,0,0,1,0,39.938l3.174,3.136,17.684-18.846A79.275,79.275,0,0,0,117.35,37.1a34.235,34.235,0,0,0-48.973,0c-29.021,28.718,24.486,65.513,0,89.748A24.178,24.178,0,0,1,33.008,123.7a35.628,35.628,0,0,1,0-48.912l-3.174-3.144L6.708,95.883A80.738,80.738,0,0,0,26.66,125.949a38.82,38.82,0,0,0,54.414,4.034C115.537,95.434,62.483,59.537,83.341,37.1Z" transform="translate(2401.484 3894.693)" fill="#1d1d1b"/><path d="M124.953,64.146l13.6,6.728L115.432,116.2,69.182,93.313,92.765,47.994l13.147,6.729,1.813-3.593L63.744,29.147l-1.813,3.585,14.053,6.737L26.109,136.844l-13.6-7.186-2.27,3.593,43.988,21.99,1.813-3.593-13.155-6.279L67.819,96.906l45.8,22.88L88.682,168.249l-13.147-6.728-1.821,3.593L117.7,187.1l1.813-3.585-14.053-7.186L155.338,79.4l13.6,6.737,1.813-3.593-43.98-21.99Z" transform="translate(2685.902 4083.929)" fill="#1d1d1b"/><path d="M89.027,52.429l13.6-5.83,20.4,46.667L75.872,113.01,55.466,66.792l13.6-5.83L67.714,56.92l-45.352,19.3,1.364,3.593,14.51-5.838,43.531,100.07-14.51,5.83,1.813,4.042,45.344-19.3-1.813-3.593L99,166.862l-21.761-49.81,47.156-20.193,21.77,49.81-13.6,5.83,1.355,3.593,45.344-19.3L177.9,133.2l-14.51,6.287L119.86,39.421l14.51-6.287-1.813-3.585-45.352,19.3Z" transform="translate(3664.107 4116.282)" fill="#1d1d1b"/><path d="M48.725,78.42A20.274,20.274,0,0,1,37.3,67.062a20,20,0,0,1,.539-16.013c4.989-14.363,16.772-20.643,35.823-18.4V28.61L50.081,21.432A78.49,78.49,0,0,0,33.3,47.9a33.43,33.43,0,0,0,7.537,37.619,33.941,33.941,0,0,0,11.513,7.251c38.542,13.016,48.52-50.7,78.447-40.828a23.929,23.929,0,0,1,13.914,13.49,23.586,23.586,0,0,1-.768,19.263,36.085,36.085,0,0,1-18.511,19.271A36.642,36.642,0,0,1,98.6,105.342v4.042l32.2,9.423a80.276,80.276,0,0,0,18.593-30.964,37.8,37.8,0,0,0-1.135-29.086,38.384,38.384,0,0,0-21.541-19.826C85.454,25.017,76.84,87.843,48.725,78.42Z" transform="translate(4318.377 3461.62)" fill="#1d1d1b"/><path d="M65.892,129.54v-4.932c-14.959-3.144-31.282-12.567-28.114-29.168l2.27-13.914,107.011,18.846L143.89,117.88h4.074l9.529-53.852h-4.083l-3.176,17.948L43.224,63.129l2.262-13.906C48.2,32.614,66.349,29.478,81.766,31.275L86.3,25.436,49.119,19.157,30.976,121.464Z" transform="translate(4358.796 3278.132)" fill="#1d1d1b"/><path d="M69.806,121.981v-4.932c-15.417,0-32.646-6.279-33.1-22.888V80.255l108.832-2.245V95.957h4.083V41.215h-4.083v16.6L36.7,60.061V46.147c0-16.6,16.78-23.329,32.2-24.677V16.53H31.264V120.642Z" transform="translate(4382.091 3066.25)" fill="#1d1d1b"/><path d="M93.936,52.74,108,41.97,155.611,102.1c12.24,15.253,17.678,27.371-6.8,44.87s-30.842,11.22-45.352-5.381L54.945,80.56l12.689-9.872-2.719-3.144L25.467,98.508l2.719,3.144,11.791-9.423,49.876,62.818c13.6,17.058,25.395,23.337,56.686,0s26.751-37.693,12.7-55.192l-48.52-61.479L121.6,29.852l.906-2.237L93.487,50.045Z" transform="translate(3914.488 3960.268)" fill="#1d1d1b"/><path d="M86.052,55.76,98.75,43.2,154.521,99.74v.449L53.855,81.343l-27.2,26.024,2.719,3.144L40.251,99.74l77.092,78.08-10.885,10.321,2.719,2.686,27.208-26.473-2.719-2.695-12.7,12.567L46.6,99.291v-.449L181.28,123.967l1.355-2.686-80.26-81.224L113.26,29.287l-3.176-2.695L82.876,53.073Z" transform="translate(4010.341 3877.809)" fill="#1d1d1b"/><path d="M40.236,76.265l-1.813-15.7,109.73-10.771,1.364,15.253L153.6,64.6l-4.989-48.912-4.083.449,1.364,15.262L36.6,42.165,35.247,26.9l-4.083.449,4.989,48.912Z" transform="translate(4374.03 2997.999)" fill="#1d1d1b"/><path d="M74.538,54.889l9.978-13.465,53.5,74.046h-.449L50.956,87.2l9.978-13.465-3.176-2.246-29.47,39.938,3.625,2.695,7.709-11.22,116.54,36.345,2.262-2.686L88.142,36.94l6.8-9.872-3.176-2.246L71.362,52.643Z" transform="translate(4142.02 3735.096)" fill="#1d1d1b"/><path d="M149.528,58.357V83.034l-53.51-4.042V70.018c0-18.846,6.8-19.744,27.665-18.4V46.689L67.455,42.647v4.94c17.679,0,24.938,3.136,23.574,21.982v8.974l-52.6-2.237V68.671c2.719-37.243,5.9-44.87,35.823-44.87V19.317H37.977l-6.8,93.333h4.083V97.4L145,105.473v15.253h4.075l7.259-98.273L115.976,17.97v4.483C139.55,24.249,151.8,31.427,149.528,58.357Z" transform="translate(4374.918 3182.4)" fill="#1d1d1b"/><path d="M35.131,123.242,24.249,100.8,72.767,77.915,76.4,85.991c8.162,17.058,3.627,20.643-14.964,29.617V120.1l53.054-23.337V92.278C98.161,99.9,91.359,101.7,83.2,84.651l-4.081-8.084,45.345-21.982,3.628,7.178c16.324,33.65,16.324,40.387-7.709,57.437v4.042l32.2-16.16L111.764,22.723h-3.627l6.8,13.906L15.633,81.508,7.471,70.288H3.843l43.078,89.748L84.1,144.326v-4.034C60.978,147.919,46.014,145.673,35.131,123.242Z" transform="translate(2170.37 3565.784)" fill="#1d1d1b"/><path d="M148.179,43.767c-24.489-8.974-30.384-3.593-45.352,17.5,4.54-15.253,4.54-28.718-13.147-35.9s-32.2,0-40.355,21.092l-19.5,44.87h3.626L39.8,77.418,140.47,122.3,134.118,136.2h3.626L157.7,91.332h-3.626l-5.9,13.465-50.79-21.99,4.083-9.423c8.615-19.3,16.323-19.745,36.729-12.118s29.478,9.873,37.635-8.525l4.989-10.771H177.2v3.593C173.117,52.292,164.5,50.047,148.179,43.767ZM94.212,80.113,48.868,60.368l3.625-7.627c6.8-15.262,17.238-16.6,31.291-10.771s20.863,14.363,14.968,27.371Z" transform="translate(4266.083 3561.34)" fill="#1d1d1b"/><path d="M103.991,141.628c7.708-24.685,0-30.066-20.406-41.285,15.417,3.585,29.021,2.246,35.365-15.261s-4.083-31.4-24.031-38.591l-45.344-16.6v3.593l14.51,5.381L26.45,141.179l-14.51-5.389v4.042l45.344,16.6v-3.593l-14.061-5.83L62.272,95.4,72.243,99c19.957,7.178,20.863,15.253,14.51,35.447s-7.708,30.066,11.342,36.8l11.334,4.034v-4.034h-4.083C97.189,166.754,99,158.229,103.991,141.628ZM64.085,90.47l16.78-44.878,8.158,3.144c15.874,5.838,18.136,16.152,12.7,30.515s-13.147,21.541-26.751,16.6Z" transform="translate(2823.407 4143.767)" fill="#1d1d1b"/><path d="M97.365,30.532a20.077,20.077,0,0,1,15.3,5.112,19.639,19.639,0,0,1,6.47,14.633c0,15.261-5.9,25.583-24.033,31.862v4.483l25.394-4.034a77.331,77.331,0,0,0,3.174-30.964,33.379,33.379,0,0,0-3.128-13.367,33.733,33.733,0,0,0-8.259-11.024,34.235,34.235,0,0,0-25.8-8.37C46.125,23.8,65.17,85.282,33.428,89.316c-15.871,0-24.486-10.771-25.847-24.228a35.2,35.2,0,0,1,7.885-25.305,35.91,35.91,0,0,1,23.4-12.837V22.456l-32.2,5.381A80.007,80.007,0,0,0,3.5,63.741a37.97,37.97,0,0,0,12.72,26.62,38.825,38.825,0,0,0,28.091,9.725C87.843,94.705,68.344,34.124,97.365,30.532Z" transform="translate(2080.478 3242.503)" fill="#1d1d1b"/><path d="M21.059,44.488l15.417-3.136L58.694,147.7l-14.959,3.135.906,4.042,48.52-9.872-.906-4.034-14.968,3.136L54.611,37.31l15.425-3.144-.915-3.585L20.152,40.454Z" transform="translate(3485.845 4199.62)" fill="#1d1d1b"/><path d="M43.8,34.415l14.968,4.034-29.021,105-15.425-4.034L13.416,143l48.071,13.016,1.356-3.593-15.417-4.483L76.447,43.389l15.417,4.034.906-4.034L44.707,30.373Z" transform="translate(2942.547 4182.76)" fill="#1d1d1b"/><path d="M54.067,46.266l3.174,4.042c12.7-8.982,30.381-14.363,40.81,0l8.616,11.211L19.6,125.693,8.722,111.33l-3.174,2.694L39.1,158.895l3.174-2.237L31.394,142.294,118,76.781,126.619,88c10.429,13.457,0,28.718-11.336,38.591l3.174,4.034,29.928-22.88L84.448,25.174Z" transform="translate(2307.875 3763.465)" fill="#1d1d1b"/><path d="M88.8,15.777v4.94c15.418,0,32.2,9.423,30.835,26.024V60.656L11.264,52.131V34.183H7.184L2.649,88.476H6.73V70.528l108.375,8.525V92.959c0,16.609-19.046,21.541-34.462,21.092v4.491l37.636,2.695,8.162-103.663Z" transform="translate(2074.074 3005.542)" fill="#1d1d1b"/><path d="M12.8,71.617l102.933-35.9L110.75,21.366h4.081l16.777,47.565h-4.08l-4.988-14.363L19.153,90.472l4.988,14.355H20.06L3.282,57.262H7.363ZM137.957,83.735,148.386,112.9H144.3l-3.627-10.321L89.891,82.388,41.825,151.494l2.721,8.076H40.465l-14.51-40.828h4.081l3.627,9.872,40.811-57L138.41,97.649l-4.534-12.567Z" transform="translate(2125.135 3456.299)" fill="#1d1d1b"/><path d="M119.366,67.995A52.529,52.529,0,0,0,113.9,46.78,53.125,53.125,0,0,0,100.22,29.567,53.895,53.895,0,0,0,58.6,17.743,52.878,52.878,0,0,0,18.785,32.2,51.735,51.735,0,0,0,20.8,109a52.964,52.964,0,0,0,40.523,12.4,53.871,53.871,0,0,0,40.971-13.98,53.006,53.006,0,0,0,12.749-17.924A52.46,52.46,0,0,0,119.366,67.995ZM28.676,98.06A22.686,22.686,0,0,1,10.538,87.29a37.837,37.837,0,0,1-4.988-16.6,26.274,26.274,0,0,1,4.988-20.643,32.821,32.821,0,0,1,17.684-8.525,207.715,207.715,0,0,1,27.66-2.246,158.78,158.78,0,0,1,36.73,0,21.888,21.888,0,0,1,8.56,3.34,21.579,21.579,0,0,1,6.4,6.532,34.733,34.733,0,0,1,4.534,17.058,31.585,31.585,0,0,1-3.627,16.6,22.613,22.613,0,0,1-12.7,10.77,114.432,114.432,0,0,1-32.649,4.034,207.458,207.458,0,0,1-35.823.449Z" transform="translate(2076.613 3123.832)" fill="#1d1d1b"/><path d="M30.667,143.235l19.5-105.451L35.207,35.089V30.6L85.083,39.58a77.123,77.123,0,0,1,28.572,10.313A44.908,44.908,0,0,1,130.427,73.68a65.311,65.311,0,0,1,2.27,33.659,61.637,61.637,0,0,1-14.968,30.956,49.883,49.883,0,0,1-24.481,15.711,75.571,75.571,0,0,1-29.478,0l-49.427-8.974V140.54Zm39-102.315L50.624,146.82l14.51,2.695a74.51,74.51,0,0,0,18.585,0,22.291,22.291,0,0,0,13.6-7.178,44.758,44.758,0,0,0,9.529-17.05,200.374,200.374,0,0,0,6.8-28.269,77.468,77.468,0,0,0,0-32.761A24.224,24.224,0,0,0,103.219,49a66.083,66.083,0,0,0-19.5-5.838Z" transform="translate(3017.347 4200.931)" fill="#1d1d1b"/><path d="M108.118,66.788h-5.9A68.039,68.039,0,0,0,98.14,54.221,29.621,29.621,0,0,0,86.8,39.27,30.15,30.15,0,0,0,68.67,34.028a26.533,26.533,0,0,0-19.5,6.728,27.247,27.247,0,0,0-7.251,16.16,201.386,201.386,0,0,0,0,27.371,265.942,265.942,0,0,0,2.719,42.175,25.478,25.478,0,0,0,8.615,15.262,23.755,23.755,0,0,0,15.866,4.932,26,26,0,0,0,12.7-3.585,14.02,14.02,0,0,0,4.442-3.977,13.87,13.87,0,0,0,2.36-5.446,85.528,85.528,0,0,0,0-18.4v-3.593H72.3v-4.491h52.6v4.491h-13.6a36.034,36.034,0,0,1-2.409,17.817A36.464,36.464,0,0,1,98.14,143.97a49.766,49.766,0,0,1-28.563,10.321,45.556,45.556,0,0,1-36.729-17.507A65.975,65.975,0,0,1,17.431,94.609,65.065,65.065,0,0,1,31.484,49.73a45.22,45.22,0,0,1,16.07-13.808,45.743,45.743,0,0,1,20.659-5.038A45.644,45.644,0,0,1,96.327,41.205c2.727,0,4.54-3.136,4.54-3.136H105.4Z" transform="translate(3254.59 4223.986)" fill="#1d1d1b"/></g></svg>